<mxfile host="app.diagrams.net" agent="Mozilla/5.0 (Windows NT 10.0; Win64; x64) AppleWebKit/537.36 (KHTML, like Gecko) Chrome/127.0.0.0 Safari/537.36" version="24.7.4">
  <diagram name="Page-1" id="13e1069c-82ec-6db2-03f1-153e76fe0fe0">
    <mxGraphModel dx="1960" dy="2111" grid="1" gridSize="10" guides="1" tooltips="1" connect="1" arrows="1" fold="1" page="1" pageScale="1" pageWidth="1100" pageHeight="850" background="none" math="0" shadow="0">
      <root>
        <mxCell id="0" />
        <mxCell id="1" parent="0" />
        <mxCell id="CgYhkUaR_mXLqK6K2Ck3-13" value="" style="shape=umlLifeline;perimeter=lifelinePerimeter;whiteSpace=wrap;html=1;container=1;dropTarget=0;collapsible=0;recursiveResize=0;outlineConnect=0;portConstraint=eastwest;newEdgeStyle={&quot;curved&quot;:0,&quot;rounded&quot;:0};participant=umlActor;" vertex="1" parent="1">
          <mxGeometry x="-1090" y="-1700" width="20" height="470" as="geometry" />
        </mxCell>
        <mxCell id="CgYhkUaR_mXLqK6K2Ck3-14" value="web client" style="shape=umlLifeline;perimeter=lifelinePerimeter;whiteSpace=wrap;html=1;container=1;dropTarget=0;collapsible=0;recursiveResize=0;outlineConnect=0;portConstraint=eastwest;newEdgeStyle={&quot;curved&quot;:0,&quot;rounded&quot;:0};" vertex="1" parent="1">
          <mxGeometry x="-973" y="-1700" width="100" height="800" as="geometry" />
        </mxCell>
        <mxCell id="CgYhkUaR_mXLqK6K2Ck3-22" value="" style="html=1;points=[[0,0,0,0,5],[0,1,0,0,-5],[1,0,0,0,5],[1,1,0,0,-5]];perimeter=orthogonalPerimeter;outlineConnect=0;targetShapes=umlLifeline;portConstraint=eastwest;newEdgeStyle={&quot;curved&quot;:0,&quot;rounded&quot;:0};" vertex="1" parent="CgYhkUaR_mXLqK6K2Ck3-14">
          <mxGeometry x="45" y="60" width="10" height="60" as="geometry" />
        </mxCell>
        <mxCell id="CgYhkUaR_mXLqK6K2Ck3-25" value="" style="html=1;outlineConnect=0;targetShapes=umlLifeline;portConstraint=eastwest;newEdgeStyle={&quot;curved&quot;:0,&quot;rounded&quot;:0};points=[[0,0,0,0,5],[0,1,0,0,-5],[1,0,0,0,5],[1,1,0,0,-5]];perimeter=orthogonalPerimeter;" vertex="1" parent="CgYhkUaR_mXLqK6K2Ck3-14">
          <mxGeometry x="45" y="160" width="10" height="20" as="geometry" />
        </mxCell>
        <mxCell id="CgYhkUaR_mXLqK6K2Ck3-28" value="" style="html=1;points=[[0,0,0,0,5],[0,1,0,0,-5],[1,0,0,0,5],[1,1,0,0,-5]];perimeter=orthogonalPerimeter;outlineConnect=0;targetShapes=umlLifeline;portConstraint=eastwest;newEdgeStyle={&quot;curved&quot;:0,&quot;rounded&quot;:0};" vertex="1" parent="CgYhkUaR_mXLqK6K2Ck3-14">
          <mxGeometry x="45" y="200" width="10" height="140" as="geometry" />
        </mxCell>
        <mxCell id="CgYhkUaR_mXLqK6K2Ck3-29" value="validasi input" style="html=1;align=left;spacingLeft=2;endArrow=block;rounded=0;edgeStyle=orthogonalEdgeStyle;curved=0;rounded=0;" edge="1" target="CgYhkUaR_mXLqK6K2Ck3-28" parent="CgYhkUaR_mXLqK6K2Ck3-14">
          <mxGeometry relative="1" as="geometry">
            <mxPoint x="50" y="180" as="sourcePoint" />
            <Array as="points">
              <mxPoint x="80" y="210" />
            </Array>
          </mxGeometry>
        </mxCell>
        <mxCell id="CgYhkUaR_mXLqK6K2Ck3-15" value="web server" style="shape=umlLifeline;perimeter=lifelinePerimeter;whiteSpace=wrap;html=1;container=1;dropTarget=0;collapsible=0;recursiveResize=0;outlineConnect=0;portConstraint=eastwest;newEdgeStyle={&quot;curved&quot;:0,&quot;rounded&quot;:0};" vertex="1" parent="1">
          <mxGeometry x="-817" y="-1700" width="100" height="860" as="geometry" />
        </mxCell>
        <mxCell id="CgYhkUaR_mXLqK6K2Ck3-33" value="" style="html=1;points=[[0,0,0,0,5],[0,1,0,0,-5],[1,0,0,0,5],[1,1,0,0,-5]];perimeter=orthogonalPerimeter;outlineConnect=0;targetShapes=umlLifeline;portConstraint=eastwest;newEdgeStyle={&quot;curved&quot;:0,&quot;rounded&quot;:0};" vertex="1" parent="CgYhkUaR_mXLqK6K2Ck3-15">
          <mxGeometry x="47" y="300" width="10" height="250" as="geometry" />
        </mxCell>
        <mxCell id="CgYhkUaR_mXLqK6K2Ck3-16" value="firebase" style="shape=umlLifeline;perimeter=lifelinePerimeter;whiteSpace=wrap;html=1;container=1;dropTarget=0;collapsible=0;recursiveResize=0;outlineConnect=0;portConstraint=eastwest;newEdgeStyle={&quot;curved&quot;:0,&quot;rounded&quot;:0};" vertex="1" parent="1">
          <mxGeometry x="-660" y="-1700" width="100" height="300" as="geometry" />
        </mxCell>
        <mxCell id="CgYhkUaR_mXLqK6K2Ck3-23" value="memilih menu register" style="html=1;verticalAlign=bottom;endArrow=block;curved=0;rounded=0;entryX=0;entryY=0;entryDx=0;entryDy=5;" edge="1" target="CgYhkUaR_mXLqK6K2Ck3-22" parent="1" source="CgYhkUaR_mXLqK6K2Ck3-13">
          <mxGeometry relative="1" as="geometry">
            <mxPoint x="-1080" y="-1605" as="sourcePoint" />
          </mxGeometry>
        </mxCell>
        <mxCell id="CgYhkUaR_mXLqK6K2Ck3-24" value="menampilkan halaman&lt;div&gt;register&lt;/div&gt;" style="html=1;verticalAlign=bottom;endArrow=open;dashed=1;endSize=8;curved=0;rounded=0;exitX=0;exitY=1;exitDx=0;exitDy=-5;" edge="1" source="CgYhkUaR_mXLqK6K2Ck3-22" parent="1" target="CgYhkUaR_mXLqK6K2Ck3-13">
          <mxGeometry x="0.0027" relative="1" as="geometry">
            <mxPoint x="-1080" y="-1535" as="targetPoint" />
            <mxPoint as="offset" />
          </mxGeometry>
        </mxCell>
        <mxCell id="CgYhkUaR_mXLqK6K2Ck3-27" value="memasukan&lt;div&gt;email dan password&lt;/div&gt;" style="html=1;verticalAlign=bottom;endArrow=block;curved=0;rounded=0;entryX=0;entryY=0;entryDx=0;entryDy=5;entryPerimeter=0;" edge="1" parent="1" source="CgYhkUaR_mXLqK6K2Ck3-13" target="CgYhkUaR_mXLqK6K2Ck3-25">
          <mxGeometry width="80" relative="1" as="geometry">
            <mxPoint x="-1050" y="-1550" as="sourcePoint" />
            <mxPoint x="-970" y="-1550" as="targetPoint" />
          </mxGeometry>
        </mxCell>
        <mxCell id="CgYhkUaR_mXLqK6K2Ck3-30" value="menampilkan&lt;div&gt;pesan eror&lt;/div&gt;" style="html=1;verticalAlign=bottom;endArrow=open;dashed=1;endSize=8;curved=0;rounded=0;" edge="1" parent="1">
          <mxGeometry x="0.001" relative="1" as="geometry">
            <mxPoint x="-929.81" y="-1420" as="sourcePoint" />
            <mxPoint x="-1079.999655172414" y="-1420" as="targetPoint" />
            <mxPoint as="offset" />
          </mxGeometry>
        </mxCell>
        <mxCell id="CgYhkUaR_mXLqK6K2Ck3-32" value="dispatch" style="html=1;verticalAlign=bottom;endArrow=block;curved=0;rounded=0;" edge="1" parent="1" source="CgYhkUaR_mXLqK6K2Ck3-28" target="CgYhkUaR_mXLqK6K2Ck3-15">
          <mxGeometry width="80" relative="1" as="geometry">
            <mxPoint x="-910" y="-1400" as="sourcePoint" />
            <mxPoint x="-830" y="-1400" as="targetPoint" />
            <Array as="points">
              <mxPoint x="-870" y="-1360" />
              <mxPoint x="-830" y="-1360" />
              <mxPoint x="-800" y="-1360" />
              <mxPoint x="-790" y="-1360" />
            </Array>
          </mxGeometry>
        </mxCell>
        <mxCell id="CgYhkUaR_mXLqK6K2Ck3-34" value="memperbaiki input" style="html=1;verticalAlign=bottom;endArrow=block;curved=0;rounded=0;entryX=0;entryY=0;entryDx=0;entryDy=5;entryPerimeter=0;" edge="1" parent="1">
          <mxGeometry x="-0.0018" width="80" relative="1" as="geometry">
            <mxPoint x="-1080" y="-1380" as="sourcePoint" />
            <mxPoint x="-928" y="-1380" as="targetPoint" />
            <mxPoint as="offset" />
          </mxGeometry>
        </mxCell>
      </root>
    </mxGraphModel>
  </diagram>
</mxfile>
